<?xml version="1.0" encoding="UTF-8"?>
<svg width="150px" height="149px" viewBox="0 0 150 149" version="1.1" xmlns="http://www.w3.org/2000/svg" xmlns:xlink="http://www.w3.org/1999/xlink">
    <!-- Generator: Sketch 58 (84663) - https://sketch.com -->
    <title>Sticker_black</title>
    <desc>Created with Sketch.</desc>
    <defs>
        <polygon id="path-1" points="0 0.313618799 10.5472734 0.313618799 10.5472734 10.351809 0 10.351809"></polygon>
    </defs>
    <g id="Page-1" stroke="none" stroke-width="1" fill="none" fill-rule="evenodd">
        <g id="00.00_Portfolio_desktop_light" transform="translate(-374.000000, -844.000000)">
            <g id="Header" transform="translate(138.000000, 381.000000)">
                <g id="Sticker_150px_black" transform="translate(236.000000, 463.000000)">
                    <g id="Sticker">
                        <g id="Texto">
                            <polygon id="Fill-1" fill="#1A1A1A" points="26.8745723 31.7311552 25.9683295 31.0090862 22.4271156 35.3999483 15.4065954 29.8023621 14.5289653 30.8906379 22.4552081 37.2102931"></polygon>
                            <polygon id="Fill-2" fill="#1A1A1A" points="32.8300751 25.9750862 32.0247572 25.1433621 27.7833121 29.2021552 25.3559133 26.6950862 28.644815 23.5476724 27.8509422 22.7273276 24.5615202 25.8742241 22.3474162 23.5864655 26.4842948 19.6280172 25.6789769 18.7957759 20.5656243 23.6888793 27.6121561 30.9680172"></polygon>
                            <polygon id="Fill-3" fill="#1A1A1A" points="30.9508439 16.1618793 36.2525202 23.3887759 37.3730983 22.5761897 32.0709017 15.3498103 35.1059306 13.148431 34.4218266 12.2158448 27.2837341 17.3929138 27.9678382 18.3255"></polygon>
                            <g id="Group-83" transform="translate(0.000000, 0.015517)">
                                <path d="M37.3934913,10.5423103 L36.0216416,11.3533448 L36.8040694,12.6624828 L37.4559191,12.2771379 C37.818,12.8838621 37.8008324,13.1367931 37.2988092,13.4890345 L37.7025087,14.1645517 C38.8168439,13.4869655 38.745052,12.8021379 38.1681156,11.8374828 L37.3934913,10.5423103 Z" id="Fill-4" fill="#1A1A1A"></path>
                                <path d="M46.892289,17.1816207 C48.865526,16.2293793 49.8451214,14.5628276 49.0283584,12.8895517 C48.3172023,11.4319655 47.1232717,11.1164483 45.2998613,11.6042069 L43.4904971,12.0847241 C42.3329827,12.3940345 41.5968555,12.3924828 41.1603815,11.4981724 C40.6677225,10.4885172 41.1047168,9.51093103 42.4255838,8.87368966 C43.9342543,8.14541379 45.2639653,8.55610345 46.0401503,10.0354138 L47.1581272,9.42455172 C46.1436763,7.383 44.2318266,6.80782759 41.9391676,7.9142069 C39.9367977,8.88041379 39.2022312,10.5712759 39.9768555,12.1581724 C40.6666821,13.5723103 41.9474913,13.8454138 43.4239075,13.4538621 L45.4065087,12.9252414 C46.7091676,12.5823103 47.4577803,12.7204138 47.8661618,13.5567931 C48.3520578,14.5524828 47.7777225,15.5424828 46.4136763,16.200931 C44.8753526,16.9426552 43.3136185,16.6442069 42.4313064,15.020069 L41.334659,15.6386897 C42.4047746,17.8312759 44.6428092,18.2667931 46.892289,17.1816207" id="Fill-6" fill="#1A1A1A"></path>
                                <path d="M54.8479249,8.89541379 L56.8939942,8.72627586 C58.2372312,8.61972414 58.9489075,8.88817241 59.2012197,9.78403448 C59.5003526,10.8495517 58.7579827,11.7221379 57.2971734,12.1281724 C55.6506416,12.5854138 54.1674624,12.0154138 53.590526,10.260931 L52.400237,10.6747241 C53.0604104,13.0224828 55.1845145,13.8474828 57.5926647,13.1781724 C59.7053237,12.5911034 60.9679249,11.1247241 60.464341,9.333 C60.0257861,7.773 58.9078092,7.25110345 57.0256127,7.40782759 L55.1590231,7.55989655 C53.964052,7.65868966 53.2404104,7.5267931 52.9714509,6.56937931 C52.6676358,5.48834483 53.273185,4.60386207 54.6866532,4.21075862 C56.3019711,3.7617931 57.537,4.40162069 58.0353815,5.99472414 L59.2454393,5.5917931 C58.6128382,3.40282759 56.8346879,2.49817241 54.380237,3.18041379 C52.2363642,3.77627586 51.2104682,5.31041379 51.6880405,7.00955172 C52.1135896,8.523 53.3246879,9.01903448 54.8479249,8.89541379" id="Fill-8" fill="#1A1A1A"></path>
                                <path d="M66.8528844,11.3505 C69.7334046,10.992569 71.1437514,9.02343103 71.0121329,6.4217069 L69.6595318,6.52515517 C69.7797052,8.38515517 68.7855434,9.91463793 66.7051387,10.1732586 C64.6564682,10.4277414 62.9880867,9.05136207 62.6780289,6.58515517 C62.3679711,4.11894828 63.6446185,2.37636207 65.6927688,2.12187931 C67.7731734,1.86325862 69.1153699,3.10256897 69.459763,4.93412069 L70.7957168,4.70343103 C70.2796474,2.14981034 68.4250231,0.586189655 65.5445029,0.944637931 C62.7602254,1.29067241 60.8660636,3.67515517 61.2536358,6.76205172 C61.6417283,9.84894828 64.0680867,11.6965345 66.8528844,11.3505" id="Fill-10" fill="#1A1A1A"></path>
                                <path d="M76.8205665,5.52775862 L74.1439769,5.45844828 L74.243341,1.67534483 L76.9199306,1.74517241 C78.6450173,1.78965517 79.3998728,2.54689655 79.3691792,3.70137931 C79.3364046,4.95155172 78.5456532,5.57275862 76.8205665,5.52775862 L76.8205665,5.52775862 Z M80.7316647,10.8103448 C80.4023584,10.4327586 80.3690636,9.85448276 80.2790636,8.37672414 C80.2135145,7.18758621 79.636578,6.41896552 78.4015491,6.14637931 C79.6469827,6.03413793 80.732185,5.24431034 80.7732832,3.68948276 C80.820104,1.89413793 79.6100462,0.676034483 77.0302197,0.608793103 L72.9032254,0.501724138 L72.6379075,10.6003448 L74.0081965,10.6360345 L74.1153642,6.56431034 L76.9849595,6.6387931 C78.3713757,6.675 78.8838035,7.44206897 78.918659,8.56603448 C78.9680809,9.75413793 79.0939769,10.4953448 79.2807399,10.7725862 L80.7316647,10.8103448 Z" id="Fill-12" fill="#1A1A1A"></path>
                                <path d="M83.6534393,6.09351724 C84.0951156,3.66403448 85.7749422,2.35282759 87.9328613,2.74024138 C90.0913006,3.12765517 91.187948,4.93748276 90.7467919,7.36696552 C90.3056358,9.79696552 88.640896,11.1107586 86.4829769,10.7233448 C84.3250578,10.335931 83.2122832,8.52351724 83.6534393,6.09351724 M86.2707225,11.8907586 C89.1746532,12.4121379 91.6186994,10.6840345 92.1748266,7.62351724 C92.7309538,4.563 91.0490462,2.0942069 88.1451156,1.57282759 C85.2250578,1.04834483 82.7971387,2.77903448 82.2415318,5.84006897 C81.6854046,8.90058621 83.351185,11.3667931 86.2707225,11.8907586" id="Fill-14" fill="#1A1A1A"></path>
                                <polygon id="Fill-16" fill="#1A1A1A" points="96.8959769 3.87248276 95.5662659 3.42610345 92.3158613 12.9976552 99.0091561 15.2445517 99.3800809 14.1511034 94.0170173 12.350069"></polygon>
                                <polygon id="Fill-18" fill="#1A1A1A" points="106.845139 17.7132414 101.754676 15.2532414 105.687624 7.20703448 104.426064 6.59772414 99.9853699 15.6820345 106.337393 18.7513448"></polygon>
                                <polygon id="Fill-20" fill="#1A1A1A" points="113.211884 23.3221034 118.514081 16.0905517 121.550671 18.291931 122.235295 17.3588276 115.092 12.1817586 114.407896 13.1148621 117.392983 15.2779655 112.090786 22.5095172"></polygon>
                                <path d="M126.047965,22.2593276 C127.621145,23.7789828 127.514497,25.8903621 125.783168,27.6608793 C124.052358,29.4319138 121.933457,29.5979483 120.360277,28.0782931 C118.787618,26.5581207 118.882821,24.4363966 120.61363,22.6653621 C122.344439,20.8943276 124.475306,20.7396724 126.047965,22.2593276 M119.528428,28.9291552 C121.645249,30.9743276 124.643861,30.8977759 126.82415,28.6669138 C129.00496,26.4360517 128.996116,23.4536379 126.879815,21.4084655 C124.751549,19.3519138 121.764902,19.4398448 119.584092,21.6707069 C117.403283,23.901569 117.400682,26.8726034 119.528428,28.9291552" id="Fill-22" fill="#1A1A1A"></path>
                                <path d="M129.101775,33.7462241 L128.317786,32.7655345 C126.305532,34.1558793 126.219173,36.4208793 127.645647,38.4613966 C128.896803,40.251569 130.704087,40.9555345 132.239809,39.8941552 C133.577324,38.9703621 133.705821,37.7491552 132.93848,36.0339828 L132.181023,34.3322586 C131.695127,33.2429483 131.582757,32.5203621 132.403682,31.9534655 C133.330214,31.3126034 134.369116,31.5908793 135.206168,32.7888103 C136.162873,34.1579483 135.961543,35.5270862 134.612064,36.5176034 L135.39189,37.521569 C137.262642,36.2093276 137.537844,34.2427759 136.083798,32.1629483 C134.814434,30.3463966 133.021197,29.8870862 131.564549,30.8931207 C130.267092,31.7895 130.19374,33.0893276 130.811254,34.4786379 L131.643104,36.3432931 C132.185705,37.5696724 132.164896,38.3258793 131.397035,38.8560517 C130.482988,39.4876034 129.410792,39.0769138 128.545647,37.8391552 C127.570734,36.4436379 127.624838,34.8639828 129.101775,33.7462241" id="Fill-24" fill="#1A1A1A"></path>
                                <polygon id="Fill-26" fill="#1A1A1A" points="133.878382 48.9227586 134.911561 48.3956897 132.225607 43.1875862 135.340231 41.6001724 137.422717 45.6382759 138.44185 45.1189655 136.359364 41.0803448 139.200867 39.632069 141.820751 44.7118966 142.853931 44.1848276 139.616012 37.9065517 130.574393 42.5156897"></polygon>
                                <polygon id="Fill-28" fill="#1A1A1A" points="136.774665 56.8543966 137.868711 56.4680172 135.898075 50.9542241 139.195301 49.7899138 140.722699 54.0643966 141.801659 53.6837069 140.27426 49.4087069 143.282237 48.3457759 145.203971 53.7240517 146.298017 53.3376724 143.922642 46.6906034 134.350908 50.0718103"></polygon>
                                <polygon id="Fill-30" fill="#1A1A1A" points="138.035653 61.9896724 146.687618 60.7663966 146.696983 60.8295 138.47837 65.0843276 138.643803 66.2434655 147.714035 67.9400172 147.723399 68.0036379 139.070913 69.227431 139.268601 70.6079483 149.325711 69.1860517 149.014613 67.011569 140.443803 65.5027759 140.43704 65.4551897 148.224382 61.4879483 147.909121 59.2819138 137.851491 60.7038103"></polygon>
                                <path d="M144.145561,80.4103448 C141.662497,80.3374138 140.108046,78.8958621 140.172555,76.7156897 C140.237584,74.5360345 141.875792,73.172069 144.358335,73.245 C146.841399,73.317931 148.395329,74.7755172 148.330301,76.9556897 C148.265792,79.1353448 146.628104,80.4832759 144.145561,80.4103448 M144.400994,71.8184483 C141.273364,71.7263793 139.067584,73.7312069 138.979665,76.6810345 C138.892266,79.6143103 140.974751,81.7608621 144.102382,81.852931 C147.230532,81.945 149.436312,79.9241379 149.523711,76.9903448 C149.61111,74.0410345 147.528624,71.91 144.400994,71.8184483" id="Fill-32" fill="#1A1A1A"></path>
                                <path d="M143.192965,87.6936207 L143.683023,85.0768966 L147.424526,85.77 L146.933948,88.3862069 C146.618168,90.072931 145.747301,90.6941379 144.605913,90.4831034 C143.369324,90.2539655 142.877185,89.3798276 143.192965,87.6936207 L143.192965,87.6936207 Z M138.562908,84.1287931 L142.589497,84.8746552 L142.064064,87.6801724 C141.809671,89.0353448 140.967416,89.4175862 139.845798,89.2753448 C138.65811,89.1367241 137.902214,89.1434483 137.597358,89.2825862 L137.33152,90.7013793 C137.75811,90.4381034 138.337647,90.4960345 139.819786,90.6403448 C141.010595,90.762931 141.864815,90.3175862 142.329902,89.1481034 C142.245104,90.387931 142.858977,91.5781034 144.39626,91.8631034 C146.172329,92.192069 147.572272,91.1958621 148.045162,88.6737931 L148.801058,84.6387931 L138.814179,82.7891379 L138.562908,84.1287931 Z" id="Fill-34" fill="#1A1A1A"></path>
                                <polygon id="Fill-36" fill="#1A1A1A" points="134.674439 98.6801897 135.775769 99.0463966 137.644439 93.4953621 140.964035 94.6001897 139.515191 98.9041552 140.601434 99.2657069 142.050277 94.9617414 145.079064 95.9693276 143.256173 101.38381 144.357503 101.750534 146.610104 95.0584655 136.973341 91.8510517"></polygon>
                                <polygon id="Fill-38" fill="#1A1A1A" points="133.917503 107.597845 135.333572 108.364397 136.104555 106.956466 134.688486 106.189914"></polygon>
                                <polygon id="Fill-40" fill="#1A1A1A" points="122.926318 117.467845 123.836202 118.185259 127.352445 113.774741 134.404179 119.3325 135.275566 118.239569 127.313948 111.964397"></polygon>
                                <polygon id="Fill-42" fill="#1A1A1A" points="117.018364 123.254483 117.828884 124.081552 122.044838 119.996379 124.486803 122.488448 121.218711 125.655517 122.017786 126.47069 125.286399 123.303621 127.515069 125.577414 123.403162 129.561724 124.213682 130.388276 129.295821 125.464138 122.204029 118.229483"></polygon>
                                <polygon id="Fill-44" fill="#1A1A1A" points="118.962104 133.060086 113.611006 125.864224 112.49563 126.684052 117.846728 133.879914 114.824185 136.101466 115.515052 137.029914 122.622971 131.805259 121.932104 130.87681"></polygon>
                                <path d="M112.481584,136.967948 C112.115341,136.36381 112.131468,136.110879 112.63141,135.755017 L112.223029,135.082086 C111.112855,135.766397 111.188809,136.450707 111.771468,137.412259 L112.554416,138.702776 L113.922104,137.883466 L113.130832,136.578983 L112.481584,136.967948 Z" id="Fill-46" fill="#1A1A1A"></path>
                                <path d="M106.499653,135.831155 L104.520173,136.373224 C103.220116,136.724948 102.470983,136.592017 102.056879,135.757707 C101.56474,134.765638 102.132312,133.772017 103.491676,133.104776 C105.025318,132.352707 106.588613,132.64081 107.48185,134.258741 L108.573815,133.633397 C107.489133,131.447534 105.248497,131.027017 103.006821,132.126672 C101.039827,133.091845 100.071676,134.764603 100.899364,136.433224 C101.619884,137.885121 102.815376,138.192879 104.635665,137.693224 L106.441908,137.20081 C107.597341,136.884259 108.332948,136.880638 108.775665,137.772362 C109.275087,138.778914 108.844335,139.759086 107.528671,140.404603 C106.024162,141.142707 104.69185,140.741328 103.906301,139.26719 L102.792486,139.884776 C103.820462,141.919603 105.735954,142.482362 108.020809,141.360983 C110.016936,140.381845 110.740058,138.686328 109.955029,137.104086 C109.255318,135.695121 107.973468,135.430293 106.499653,135.831155" id="Fill-48" fill="#1A1A1A"></path>
                                <path d="M95.1094509,140.45731 L93.0649422,140.638862 C91.7227457,140.754207 91.0095087,140.489897 90.7519942,139.596103 C90.4460983,138.532655 91.1832659,137.655414 92.6404335,137.241103 C94.2838439,136.773 95.7706647,137.334207 96.3580058,139.084552 L97.5451734,138.663517 C96.8709538,136.320414 94.7416474,135.508862 92.3386994,136.192655 C90.2302023,136.792655 88.9769653,138.266793 89.4919942,140.054897 C89.9399133,141.611276 91.0610116,142.126448 92.9416474,141.957828 L94.8066763,141.793862 C96.0006069,141.687828 96.7247688,141.815069 96.9999711,142.770931 C97.3105491,143.849897 96.7107225,144.737483 95.2998555,145.139379 C93.687659,145.598172 92.4489884,144.966621 91.9412428,143.377138 L90.7343064,143.786793 C91.3799133,145.971621 93.1632659,146.864897 95.6130347,146.167655 C97.7522254,145.558862 98.768237,144.019034 98.2802601,142.323517 C97.8453468,140.812655 96.6311272,140.324379 95.1094509,140.45731" id="Fill-50" fill="#1A1A1A"></path>
                                <path d="M83.0867514,138.082241 C80.2088324,138.458793 78.8120116,140.436207 78.9607977,143.036379 L80.3123584,142.924138 C80.1802197,141.066207 81.1639769,139.530517 83.2423006,139.258448 C85.2888902,138.990517 86.9661156,140.356034 87.2917803,142.819655 C87.6179653,145.283793 86.3532832,147.033621 84.3066936,147.301552 C82.2283699,147.573621 80.8783699,146.343103 80.5225318,144.514138 L79.1876185,144.753103 C79.7203353,147.303103 81.5848439,148.85431 84.462763,148.477759 C87.2444393,148.114138 89.1229942,145.717241 88.7146127,142.633448 C88.3067514,139.549655 85.8684277,137.718103 83.0867514,138.082241" id="Fill-52" fill="#1A1A1A"></path>
                                <path d="M75.7486301,147.799966 L73.0725607,147.746172 C71.347474,147.711517 70.5884566,146.958931 70.6118671,145.804448 C70.6373584,144.554276 71.423948,143.928931 73.1490347,143.963586 L75.8256243,144.016862 L75.7486301,147.799966 Z M75.8479942,142.911 L72.9783988,142.853586 C71.5914624,142.825655 71.0748728,142.061172 71.0332543,140.937724 C70.9765491,139.750138 70.8464913,139.009966 70.6586879,138.733759 L69.207763,138.704793 C69.5386301,139.079793 69.5755665,139.658069 69.6744104,141.13531 C69.7472428,142.323414 70.328341,143.088931 71.5649306,143.354276 C70.3205376,143.473759 69.2400173,144.269793 69.2082832,145.824621 C69.1718671,147.619966 70.3892081,148.830828 72.9685145,148.882552 L77.0960289,148.96531 L77.301,138.86669 L75.930711,138.839276 L75.8479942,142.911 Z" id="Fill-54" fill="#1A1A1A"></path>
                                <path d="M66.3283353,143.444586 C65.9033064,145.878207 64.230763,147.200793 62.0697225,146.827345 C59.9081618,146.453379 58.7990289,144.650276 59.224578,142.216655 C59.6501272,139.783552 61.3060231,138.458379 63.4675838,138.831828 C65.6286243,139.205276 66.7538844,141.011483 66.3283353,143.444586 M63.6720347,137.662345 C60.763422,137.160103 58.3303006,138.904241 57.7944624,141.969414 C57.2586243,145.035103 58.9571792,147.493552 61.8652717,147.99631 C64.7894913,148.501655 67.2070058,146.754414 67.7428439,143.689241 C68.2786821,140.623552 66.5962543,138.16769 63.6720347,137.662345" id="Fill-56" fill="#1A1A1A"></path>
                                <polygon id="Fill-58" fill="#1A1A1A" points="50.5428035 135.486931 55.9178324 137.251759 53.0960983 145.746931 54.4284104 146.184517 57.6137861 136.592793 50.9069653 134.390897"></polygon>
                                <polygon id="Fill-60" fill="#1A1A1A" points="43.0606821 131.973828 48.1677919 134.400724 44.2873873 142.47331 45.5536301 143.074345 49.9344971 133.960552 43.5611445 130.932103"></polygon>
                                <polygon id="Fill-62" fill="#1A1A1A" points="36.6576243 126.404638 31.4043295 133.666707 28.3542139 131.486017 27.6763526 132.422741 34.8493006 137.552224 35.5276821 136.6155 32.5295896 134.472052 37.7834046 127.209466"></polygon>
                                <path d="M23.8291387,127.548466 C22.2465954,126.039672 22.3391965,123.928293 24.0575202,122.146397 C25.7768844,120.3645 27.8937052,120.1845 29.4767688,121.69381 C31.0593121,123.203121 30.9786763,125.324845 29.2593121,127.106741 C27.5409884,128.888638 25.4116821,129.057776 23.8291387,127.548466 M30.3023757,120.837776 C28.1730694,118.807086 25.1754971,118.903293 23.0102948,121.147603 C20.8450925,123.392431 20.8737052,126.37381 23.0035318,128.4045 C25.1442832,130.446569 28.1304104,130.3395 30.2956127,128.094672 C32.460815,125.849845 32.4436474,122.879328 30.3023757,120.837776" id="Fill-64" fill="#1A1A1A"></path>
                                <path d="M20.6983353,116.080034 L21.4890867,117.056586 C23.4930173,115.652793 23.564289,113.386241 22.1248092,111.354517 C20.8611676,109.571586 19.0492023,108.879517 17.5197225,109.950207 C16.1884509,110.88331 16.0677572,112.105034 16.8455029,113.816069 L17.6144046,115.513655 C18.1075838,116.599862 18.2246358,117.321931 17.4073526,117.894517 C16.4844624,118.541069 15.4434798,118.269517 14.5986243,117.076241 C13.6325549,115.71331 13.8255607,114.342621 15.1687977,113.342793 L14.3822081,112.344 C12.5192601,113.668138 12.2570636,115.637276 13.7246358,117.70831 C15.0059653,119.517621 16.8028439,119.965552 18.2532486,118.94969 C19.5455029,118.044517 19.6105318,116.744172 18.9841734,115.358483 L18.1393179,113.497966 C17.5889133,112.275724 17.6050405,111.519 18.3697803,110.983138 C19.2796647,110.346414 20.3549827,110.749862 21.2279306,111.982448 C22.2127283,113.372276 22.1685087,114.952448 20.6983353,116.080034" id="Fill-66" fill="#1A1A1A"></path>
                                <polygon id="Fill-68" fill="#1A1A1A" points="15.8254855 100.936552 14.7954277 101.469828 17.516237 106.660862 14.4120173 108.269483 12.303 104.244828 11.2869884 104.770862 13.396526 108.795517 10.5643873 110.262931 7.91068786 105.199655 6.88063006 105.733448 10.1601676 111.991034 19.1721329 107.322414"></polygon>
                                <polygon id="Fill-70" fill="#1A1A1A" points="12.872289 93.0034138 11.7808439 93.3965172 13.785815 98.898931 10.4958728 100.083931 8.94090173 95.8177241 7.86454335 96.2056552 9.41899422 100.471862 6.41726012 101.553414 4.46171098 96.1865172 3.36974566 96.5801379 5.78673988 103.212724 15.3387052 99.7720345"></polygon>
                                <polygon id="Fill-72" fill="#1A1A1A" points="11.5849249 87.8989655 2.93712139 89.1781034 2.92723699 89.1144828 11.1219191 84.8053448 10.9486821 83.6472414 1.86388439 82.0075862 1.85452023 81.9439655 10.5023237 80.6648276 10.2963121 79.2848276 0.244404624 80.7713793 0.569549133 82.9448276 9.15336416 84.3993103 9.16012717 84.4468966 1.39515607 88.4653448 1.72498266 90.6703448 11.7774104 89.1837931"></polygon>
                                <g id="Group-76" transform="translate(0.000000, 67.758621)">
                                    <mask id="mask-2" fill="white">
                                        <use xlink:href="#path-1"></use>
                                    </mask>
                                    <g id="Clip-75"></g>
                                    <path d="M5.35687283,1.75805172 C7.83941618,1.81494828 9.40323121,3.24615517 9.35276879,5.42632759 C9.30178613,7.6065 7.6729422,8.9802931 5.18987861,8.92339655 C2.70733526,8.86598276 1.14404046,7.41874138 1.19450289,5.23856897 C1.24548555,3.05891379 2.87380925,1.70115517 5.35687283,1.75805172 M5.15658382,10.3499483 C8.28421387,10.4218448 10.4769884,8.40356897 10.545659,5.45425862 C10.6138092,2.52046552 8.51831792,0.387362069 5.39016763,0.315465517 C2.26253757,0.243568966 0.0697630058,2.27787931 0.00161271676,5.21115517 C-0.0670578035,8.16098276 2.02895376,10.2780517 5.15658382,10.3499483" id="Fill-74" fill="#1A1A1A" mask="url(#mask-2)"></path>
                                </g>
                                <path d="M6.25989017,62.2255345 L5.78647977,64.8458793 L2.03977457,64.1770862 L2.51318497,61.5572586 C2.81804046,59.8679483 3.6852659,59.2405345 4.82821387,59.4448448 C6.06636416,59.6657069 6.56474566,60.5367414 6.25989017,62.2255345 L6.25989017,62.2255345 Z M10.9149191,65.7608793 L6.88208671,65.0413966 L7.38931214,62.2317414 C7.63486127,60.8739828 8.47451445,60.486569 9.59769364,60.621569 C10.786422,60.752431 11.5423179,60.7405345 11.8466532,60.5993276 L12.1031272,59.1789828 C11.6780983,59.4453621 11.0980405,59.3905345 9.61486127,59.2560517 C8.42249133,59.1412241 7.57139306,59.5922586 7.1135896,60.7648448 C7.19006358,59.5239828 6.56838728,58.337431 5.02850289,58.0627759 C3.2503526,57.7451897 1.85613295,58.7512241 1.39989017,61.2769138 L0.670526012,65.3181207 L10.6724913,67.1026034 L10.9149191,65.7608793 Z" id="Fill-77" fill="#1A1A1A"></path>
                                <polygon id="Fill-79" fill="#1A1A1A" points="14.7118786 51.1791207 13.6084682 50.8191207 11.7746532 56.3820517 8.44777457 55.2979138 9.87008671 50.9851552 8.78176301 50.6303276 7.3599711 54.9430862 4.32442197 53.9541207 6.11349711 48.5282586 5.01008671 48.1687759 2.79910405 54.8748103 12.4561561 58.0217069"></polygon>
                                <polygon id="Fill-81" fill="#1A1A1A" points="15.4066474 42.2602241 13.9853757 41.5024655 13.223237 42.9160862 14.6445087 43.6738448"></polygon>
                            </g>
                        </g>
                        <g id="Ojo" transform="translate(48.000000, 58.000000)" fill="#1A1A1A" fill-rule="nonzero">
                            <path d="M53.22,17.11 C45.27,5.65 36.62,-0.1 27.56,4.33680869e-19 C19.63,0.09 12.84,4.74 8.56,8.63 C5.73002465,11.164274 3.19408318,14.0088221 1,17.11 C0.949982817,17.1966323 0.949982817,17.3033677 1,17.39 C3.17532415,20.4879989 5.69102767,23.332421 8.5,25.87 C12.8,29.76 19.59,34.41 27.5,34.5 L27.75,34.5 C36.75,34.5 45.29,28.75 53.16,17.39 C53.2395887,17.3201284 53.2639701,17.2063485 53.22,17.11 Z M27.81,34 L27.57,34 C13.39,33.84 2.66,18.86 1.55,17.25 C2.66,15.64 13.39,0.66 27.57,0.5 L27.81,0.5 C36.59,0.5 45,6.14 52.71,17.25 C45,28.37 36.59,34 27.81,34 Z" id="Shape"></path>
                            <circle id="Oval" cx="27.13" cy="17.25" r="2.5"></circle>
                        </g>
                    </g>
                </g>
            </g>
        </g>
    </g>
</svg>